<mxfile host="app.diagrams.net" modified="2023-07-04T16:32:52.889Z" agent="Mozilla/5.0 (Windows NT 10.0; Win64; x64; rv:109.0) Gecko/20100101 Firefox/114.0" etag="x_vChpDTMEqju5lVF4N-" version="21.5.0" type="device">
  <diagram name="Page-1" id="xKoXBL1lxWofK35XoJIl">
    <mxGraphModel dx="2864" dy="763" grid="1" gridSize="10" guides="1" tooltips="1" connect="1" arrows="1" fold="1" page="1" pageScale="1" pageWidth="827" pageHeight="1169" math="0" shadow="0">
      <root>
        <mxCell id="0" />
        <mxCell id="1" parent="0" />
        <mxCell id="r5e3KMjcLkSgbP-TrG8j-1" value="&lt;div&gt;LAN9254&lt;/div&gt;&lt;div&gt;DEVICE 1&lt;/div&gt;&lt;div&gt;DOWNSTREAM&lt;br&gt;&lt;/div&gt;" style="rounded=0;whiteSpace=wrap;html=1;fillColor=#ffe6cc;strokeColor=#d79b00;sketch=1;curveFitting=1;jiggle=2;" vertex="1" parent="1">
          <mxGeometry x="120" y="320" width="240" height="160" as="geometry" />
        </mxCell>
        <mxCell id="r5e3KMjcLkSgbP-TrG8j-3" value="P0&lt;br&gt;PHY A" style="rounded=0;whiteSpace=wrap;html=1;fillColor=#e1d5e7;strokeColor=#9673a6;" vertex="1" parent="1">
          <mxGeometry x="120" y="340" width="40" height="40" as="geometry" />
        </mxCell>
        <mxCell id="r5e3KMjcLkSgbP-TrG8j-4" value="P1&lt;br&gt;PHY B" style="rounded=0;whiteSpace=wrap;html=1;fillColor=#e1d5e7;strokeColor=#9673a6;" vertex="1" parent="1">
          <mxGeometry x="120" y="420" width="40" height="40" as="geometry" />
        </mxCell>
        <mxCell id="r5e3KMjcLkSgbP-TrG8j-18" value="MII" style="edgeStyle=orthogonalEdgeStyle;rounded=0;orthogonalLoop=1;jettySize=auto;html=1;exitX=1;exitY=0.5;exitDx=0;exitDy=0;startArrow=classic;startFill=1;" edge="1" parent="1" source="r5e3KMjcLkSgbP-TrG8j-5" target="r5e3KMjcLkSgbP-TrG8j-7">
          <mxGeometry relative="1" as="geometry" />
        </mxCell>
        <mxCell id="r5e3KMjcLkSgbP-TrG8j-5" value="P2&lt;br&gt;MII" style="rounded=0;whiteSpace=wrap;html=1;fillColor=#e1d5e7;strokeColor=#9673a6;" vertex="1" parent="1">
          <mxGeometry x="320" y="380" width="40" height="40" as="geometry" />
        </mxCell>
        <mxCell id="r5e3KMjcLkSgbP-TrG8j-6" value="&lt;div&gt;LAN9254&lt;/div&gt;&lt;div&gt;DEVICE 2&lt;br&gt;&lt;/div&gt;&lt;div&gt;UPSTREAM&lt;br&gt;&lt;/div&gt;" style="rounded=0;whiteSpace=wrap;html=1;fillColor=#ffe6cc;strokeColor=#d79b00;sketch=1;curveFitting=1;jiggle=2;" vertex="1" parent="1">
          <mxGeometry x="440" y="320" width="240" height="160" as="geometry" />
        </mxCell>
        <mxCell id="r5e3KMjcLkSgbP-TrG8j-7" value="P0&lt;br&gt;MII" style="rounded=0;whiteSpace=wrap;html=1;fillColor=#e1d5e7;strokeColor=#9673a6;" vertex="1" parent="1">
          <mxGeometry x="440" y="380" width="40" height="40" as="geometry" />
        </mxCell>
        <mxCell id="r5e3KMjcLkSgbP-TrG8j-26" style="edgeStyle=orthogonalEdgeStyle;rounded=0;orthogonalLoop=1;jettySize=auto;html=1;exitX=1;exitY=0.5;exitDx=0;exitDy=0;startArrow=classic;startFill=1;" edge="1" parent="1" source="r5e3KMjcLkSgbP-TrG8j-8" target="r5e3KMjcLkSgbP-TrG8j-25">
          <mxGeometry relative="1" as="geometry" />
        </mxCell>
        <mxCell id="r5e3KMjcLkSgbP-TrG8j-8" value="P1&lt;br&gt;PHY B" style="rounded=0;whiteSpace=wrap;html=1;fillColor=#e1d5e7;strokeColor=#9673a6;" vertex="1" parent="1">
          <mxGeometry x="640" y="340" width="40" height="40" as="geometry" />
        </mxCell>
        <mxCell id="r5e3KMjcLkSgbP-TrG8j-9" value="P2&lt;br&gt;PHY A" style="rounded=0;whiteSpace=wrap;html=1;fillColor=#e1d5e7;strokeColor=#9673a6;" vertex="1" parent="1">
          <mxGeometry x="640" y="400" width="40" height="40" as="geometry" />
        </mxCell>
        <mxCell id="r5e3KMjcLkSgbP-TrG8j-28" style="edgeStyle=orthogonalEdgeStyle;rounded=0;orthogonalLoop=1;jettySize=auto;html=1;exitX=1;exitY=0.75;exitDx=0;exitDy=0;startArrow=classic;startFill=1;" edge="1" parent="1" source="r5e3KMjcLkSgbP-TrG8j-10" target="r5e3KMjcLkSgbP-TrG8j-27">
          <mxGeometry relative="1" as="geometry" />
        </mxCell>
        <mxCell id="r5e3KMjcLkSgbP-TrG8j-10" value="&lt;div&gt;LAN9254&lt;/div&gt;&lt;div&gt;DEVICE 3&lt;br&gt;&lt;/div&gt;&lt;div&gt;DOWNSTREAM&lt;br&gt;&lt;/div&gt;" style="rounded=0;whiteSpace=wrap;html=1;fillColor=#ffe6cc;strokeColor=#d79b00;sketch=1;curveFitting=1;jiggle=2;" vertex="1" parent="1">
          <mxGeometry x="440" y="560" width="240" height="160" as="geometry" />
        </mxCell>
        <mxCell id="r5e3KMjcLkSgbP-TrG8j-20" value="Capacitively coupled&lt;br&gt;Transformerless" style="edgeStyle=orthogonalEdgeStyle;rounded=0;orthogonalLoop=1;jettySize=auto;html=1;exitX=1;exitY=0.5;exitDx=0;exitDy=0;entryX=1.004;entryY=0.611;entryDx=0;entryDy=0;entryPerimeter=0;startArrow=classic;startFill=1;" edge="1" parent="1" source="r5e3KMjcLkSgbP-TrG8j-11" target="r5e3KMjcLkSgbP-TrG8j-6">
          <mxGeometry relative="1" as="geometry">
            <Array as="points">
              <mxPoint x="720" y="590" />
              <mxPoint x="720" y="418" />
            </Array>
          </mxGeometry>
        </mxCell>
        <mxCell id="r5e3KMjcLkSgbP-TrG8j-11" value="P0&lt;br&gt;PHY A" style="rounded=0;whiteSpace=wrap;html=1;fillColor=#e1d5e7;strokeColor=#9673a6;" vertex="1" parent="1">
          <mxGeometry x="640" y="570" width="40" height="40" as="geometry" />
        </mxCell>
        <mxCell id="r5e3KMjcLkSgbP-TrG8j-12" value="P1&lt;br&gt;PHY B" style="rounded=0;whiteSpace=wrap;html=1;fillColor=#e1d5e7;strokeColor=#9673a6;" vertex="1" parent="1">
          <mxGeometry x="640" y="660" width="40" height="40" as="geometry" />
        </mxCell>
        <mxCell id="r5e3KMjcLkSgbP-TrG8j-13" value="P2&lt;br&gt;MII" style="rounded=0;whiteSpace=wrap;html=1;fillColor=#e1d5e7;strokeColor=#9673a6;" vertex="1" parent="1">
          <mxGeometry x="440" y="620" width="40" height="40" as="geometry" />
        </mxCell>
        <mxCell id="r5e3KMjcLkSgbP-TrG8j-14" value="&lt;div&gt;LAN9254&lt;/div&gt;&lt;div&gt;DEVICE 1&lt;/div&gt;&lt;div&gt;UPSTREAM&lt;br&gt;&lt;/div&gt;" style="rounded=0;whiteSpace=wrap;html=1;fillColor=#ffe6cc;strokeColor=#d79b00;sketch=1;curveFitting=1;jiggle=2;" vertex="1" parent="1">
          <mxGeometry x="120" y="560" width="240" height="160" as="geometry" />
        </mxCell>
        <mxCell id="r5e3KMjcLkSgbP-TrG8j-15" value="P2&lt;br&gt;PHY A" style="rounded=0;whiteSpace=wrap;html=1;fillColor=#e1d5e7;strokeColor=#9673a6;" vertex="1" parent="1">
          <mxGeometry x="120" y="580" width="40" height="40" as="geometry" />
        </mxCell>
        <mxCell id="r5e3KMjcLkSgbP-TrG8j-16" value="P1&lt;br&gt;PHY B" style="rounded=0;whiteSpace=wrap;html=1;fillColor=#e1d5e7;strokeColor=#9673a6;" vertex="1" parent="1">
          <mxGeometry x="120" y="660" width="40" height="40" as="geometry" />
        </mxCell>
        <mxCell id="r5e3KMjcLkSgbP-TrG8j-19" value="MII" style="edgeStyle=orthogonalEdgeStyle;rounded=0;orthogonalLoop=1;jettySize=auto;html=1;exitX=1;exitY=0.5;exitDx=0;exitDy=0;entryX=0;entryY=0.5;entryDx=0;entryDy=0;startArrow=classic;startFill=1;" edge="1" parent="1" source="r5e3KMjcLkSgbP-TrG8j-17" target="r5e3KMjcLkSgbP-TrG8j-13">
          <mxGeometry relative="1" as="geometry" />
        </mxCell>
        <mxCell id="r5e3KMjcLkSgbP-TrG8j-17" value="&lt;div&gt;P0&lt;/div&gt;MII" style="rounded=0;whiteSpace=wrap;html=1;fillColor=#e1d5e7;strokeColor=#9673a6;" vertex="1" parent="1">
          <mxGeometry x="320" y="620" width="40" height="40" as="geometry" />
        </mxCell>
        <mxCell id="r5e3KMjcLkSgbP-TrG8j-22" style="edgeStyle=orthogonalEdgeStyle;rounded=0;orthogonalLoop=1;jettySize=auto;html=1;exitX=0.5;exitY=1;exitDx=0;exitDy=0;entryX=0;entryY=0.5;entryDx=0;entryDy=0;startArrow=classic;startFill=1;" edge="1" parent="1" source="r5e3KMjcLkSgbP-TrG8j-21" target="r5e3KMjcLkSgbP-TrG8j-3">
          <mxGeometry relative="1" as="geometry" />
        </mxCell>
        <mxCell id="r5e3KMjcLkSgbP-TrG8j-21" value="JST&lt;br&gt;PORT 0" style="rounded=0;whiteSpace=wrap;html=1;fillColor=#dae8fc;strokeColor=#6c8ebf;sketch=1;curveFitting=1;jiggle=2;rotation=-90;" vertex="1" parent="1">
          <mxGeometry x="-60" y="300" width="120" height="60" as="geometry" />
        </mxCell>
        <mxCell id="r5e3KMjcLkSgbP-TrG8j-24" style="edgeStyle=orthogonalEdgeStyle;rounded=0;orthogonalLoop=1;jettySize=auto;html=1;exitX=0.5;exitY=1;exitDx=0;exitDy=0;entryX=0;entryY=0.75;entryDx=0;entryDy=0;startArrow=classic;startFill=1;" edge="1" parent="1" source="r5e3KMjcLkSgbP-TrG8j-23" target="r5e3KMjcLkSgbP-TrG8j-4">
          <mxGeometry relative="1" as="geometry" />
        </mxCell>
        <mxCell id="r5e3KMjcLkSgbP-TrG8j-23" value="JST&lt;br&gt;PORT 1" style="rounded=0;whiteSpace=wrap;html=1;fillColor=#dae8fc;strokeColor=#6c8ebf;sketch=1;curveFitting=1;jiggle=2;rotation=-90;" vertex="1" parent="1">
          <mxGeometry x="-60" y="430" width="120" height="60" as="geometry" />
        </mxCell>
        <mxCell id="r5e3KMjcLkSgbP-TrG8j-25" value="JST&lt;br&gt;PORT 2" style="rounded=0;whiteSpace=wrap;html=1;fillColor=#dae8fc;strokeColor=#6c8ebf;sketch=1;curveFitting=1;jiggle=2;rotation=90;" vertex="1" parent="1">
          <mxGeometry x="730" y="330" width="120" height="60" as="geometry" />
        </mxCell>
        <mxCell id="r5e3KMjcLkSgbP-TrG8j-27" value="JST&lt;br&gt;PORT 3" style="rounded=0;whiteSpace=wrap;html=1;fillColor=#dae8fc;strokeColor=#6c8ebf;sketch=1;curveFitting=1;jiggle=2;rotation=90;" vertex="1" parent="1">
          <mxGeometry x="730" y="650" width="120" height="60" as="geometry" />
        </mxCell>
        <mxCell id="r5e3KMjcLkSgbP-TrG8j-32" style="edgeStyle=orthogonalEdgeStyle;rounded=0;orthogonalLoop=1;jettySize=auto;html=1;exitX=0.5;exitY=1;exitDx=0;exitDy=0;startArrow=classic;startFill=1;" edge="1" parent="1" source="r5e3KMjcLkSgbP-TrG8j-30" target="r5e3KMjcLkSgbP-TrG8j-15">
          <mxGeometry relative="1" as="geometry" />
        </mxCell>
        <mxCell id="r5e3KMjcLkSgbP-TrG8j-30" value="JST&lt;br&gt;PORT 4" style="rounded=0;whiteSpace=wrap;html=1;fillColor=#dae8fc;strokeColor=#6c8ebf;sketch=1;curveFitting=1;jiggle=2;rotation=-90;" vertex="1" parent="1">
          <mxGeometry x="-60" y="555" width="120" height="60" as="geometry" />
        </mxCell>
        <mxCell id="r5e3KMjcLkSgbP-TrG8j-33" style="edgeStyle=orthogonalEdgeStyle;rounded=0;orthogonalLoop=1;jettySize=auto;html=1;exitX=0.5;exitY=1;exitDx=0;exitDy=0;entryX=0;entryY=0.5;entryDx=0;entryDy=0;startArrow=classic;startFill=1;" edge="1" parent="1" source="r5e3KMjcLkSgbP-TrG8j-31" target="r5e3KMjcLkSgbP-TrG8j-16">
          <mxGeometry relative="1" as="geometry" />
        </mxCell>
        <mxCell id="r5e3KMjcLkSgbP-TrG8j-31" value="JST&lt;br&gt;PORT 5" style="rounded=0;whiteSpace=wrap;html=1;fillColor=#dae8fc;strokeColor=#6c8ebf;sketch=1;curveFitting=1;jiggle=2;rotation=-90;" vertex="1" parent="1">
          <mxGeometry x="-60" y="680" width="120" height="60" as="geometry" />
        </mxCell>
        <mxCell id="r5e3KMjcLkSgbP-TrG8j-36" style="edgeStyle=orthogonalEdgeStyle;rounded=0;orthogonalLoop=1;jettySize=auto;html=1;exitX=0.5;exitY=1;exitDx=0;exitDy=0;entryX=0.5;entryY=0;entryDx=0;entryDy=0;" edge="1" parent="1" source="r5e3KMjcLkSgbP-TrG8j-34" target="r5e3KMjcLkSgbP-TrG8j-35">
          <mxGeometry relative="1" as="geometry" />
        </mxCell>
        <mxCell id="r5e3KMjcLkSgbP-TrG8j-34" value="JST&lt;br&gt;VIN 6-60VV" style="rounded=0;whiteSpace=wrap;html=1;fillColor=#dae8fc;strokeColor=#6c8ebf;sketch=1;curveFitting=1;jiggle=2;rotation=0;" vertex="1" parent="1">
          <mxGeometry x="342" y="130" width="120" height="50" as="geometry" />
        </mxCell>
        <mxCell id="r5e3KMjcLkSgbP-TrG8j-35" value="BUCK CONVERTER&lt;br&gt;LDO" style="rounded=0;whiteSpace=wrap;html=1;fillColor=#f8cecc;strokeColor=#b85450;sketch=1;curveFitting=1;jiggle=2;" vertex="1" parent="1">
          <mxGeometry x="340" y="210" width="124" height="60" as="geometry" />
        </mxCell>
      </root>
    </mxGraphModel>
  </diagram>
</mxfile>
